<?xml version="1.0" standalone="no"?>
<!DOCTYPE svg PUBLIC "-//W3C//DTD SVG 20010904//EN"
 "http://www.w3.org/TR/2001/REC-SVG-20010904/DTD/svg10.dtd">
<svg version="1.0" xmlns="http://www.w3.org/2000/svg"
 width="3999.000000pt" height="1200.000000pt" viewBox="0 0 3999.000000 1200.000000"
 preserveAspectRatio="xMidYMid meet">

<g transform="translate(0.000000,1200.000000) scale(0.100000,-0.100000)"
fill="#000000" stroke="none">
<path d="M6560 11993 c-975 -42 -1729 -268 -2507 -752 -787 -488 -1339 -1084
-1768 -1904 -330 -633 -563 -1398 -640 -2107 -29 -271 -28 -264 -128 -516
-171 -430 -608 -1455 -1182 -2774 -295 -678 -325 -747 -325 -754 0 -3 119 -6
263 -6 145 0 480 -3 745 -7 l482 -6 0 -1574 0 -1573 3499 0 3500 0 -14 48 c-8
26 -89 315 -180 642 -91 327 -168 603 -171 613 -5 16 -140 17 -2658 17 l-2653
0 -6 158 c-4 86 -7 761 -7 1500 l0 1342 -430 0 c-236 0 -430 2 -430 5 0 16
473 1177 892 2190 l195 470 17 175 c60 615 143 990 295 1345 100 232 333 616
502 827 363 455 872 830 1429 1056 780 315 1595 355 2425 117 1092 -313 1978
-1082 2410 -2091 132 -308 226 -644 272 -974 25 -180 25 -679 0 -875 -107
-821 -425 -1546 -915 -2082 l-84 -92 631 -2180 c347 -1199 631 -2183 631
-2186 0 -3 291 -5 646 -5 l646 0 -7 28 c-3 15 -249 929 -546 2032 l-539 2005
60 85 c306 435 551 1011 684 1608 131 584 160 1203 85 1792 -87 693 -347 1477
-646 1952 -235 372 -490 685 -839 1028 -426 417 -839 714 -1309 941 -122 58
-236 102 -480 182 -394 131 -561 178 -780 222 -347 69 -692 94 -1065 78z"/>
<path d="M6455 10293 c-126 -10 -403 -56 -531 -87 -400 -99 -777 -265 -1074
-475 -255 -180 -583 -482 -748 -689 -118 -147 -246 -346 -328 -507 -194 -379
-297 -758 -365 -1340 l-22 -190 -100 -260 c-365 -955 -757 -2026 -757 -2066 0
-5 149 -9 330 -9 l330 0 0 -1490 0 -1490 2421 0 c2300 0 2420 1 2415 18 -15
47 -356 1262 -356 1267 0 3 -713 5 -1585 5 l-1585 0 0 1335 0 1335 -136 0
c-123 0 -136 2 -130 17 38 99 214 582 334 918 l150 420 12 130 c44 488 254
932 601 1271 173 168 306 261 524 365 193 92 358 138 640 180 128 18 176 21
330 16 307 -10 568 -81 867 -233 144 -74 249 -153 383 -288 435 -437 668
-1042 625 -1616 -52 -679 -403 -1230 -1022 -1602 -61 -37 -116 -69 -121 -71
-14 -4 136 -541 703 -2527 318 -1115 519 -1832 660 -2358 l74 -272 654 0 654
0 -7 28 c-3 15 -298 1024 -655 2242 -357 1218 -652 2227 -655 2242 -6 25 3 38
101 136 441 441 737 990 858 1593 117 582 102 1076 -50 1683 -77 307 -278 710
-505 1012 -543 725 -1321 1184 -2269 1340 -93 16 -546 27 -665 17z"/>
<path d="M16710 9434 c-19 -2 -98 -9 -175 -15 -701 -54 -1334 -242 -1793 -533
-179 -114 -302 -215 -497 -411 -478 -478 -811 -971 -1038 -1540 -123 -310
-235 -755 -281 -1125 -45 -357 -51 -458 -51 -865 1 -413 8 -511 51 -730 76
-378 277 -797 539 -1123 356 -441 1053 -652 2155 -652 818 0 1405 113 1911
365 686 344 1191 802 1449 1316 53 105 142 331 166 424 12 45 18 106 19 170 0
55 3 103 8 106 9 7 -1438 1 -1739 -7 l-220 -6 -13 -62 c-42 -202 -135 -362
-316 -541 -158 -157 -328 -267 -517 -336 -120 -44 -211 -59 -408 -66 -608 -21
-882 162 -1034 690 -55 191 -81 437 -71 677 6 141 42 495 65 630 89 536 255
1061 452 1430 116 219 235 378 423 566 352 352 652 461 1132 410 171 -18 290
-49 396 -102 327 -165 444 -380 404 -742 l-8 -72 1007 2 1008 3 13 50 c49 188
56 609 14 807 -55 254 -168 461 -343 623 -97 91 -186 150 -363 241 -439 228
-888 353 -1445 404 -113 11 -831 22 -900 14z"/>
<path d="M20966 9223 c-3 -10 -282 -1368 -621 -3018 -339 -1650 -645 -3136
-681 -3303 -35 -167 -64 -305 -64 -308 0 -2 388 -3 862 -2 l862 3 505 2523
c277 1387 507 2520 510 2516 3 -3 281 -1138 616 -2522 l611 -2517 1304 0 1304
0 528 2440 c290 1342 613 2834 718 3316 104 483 190 880 190 883 0 3 -389 6
-864 6 l-864 0 -5 -22 c-3 -13 -245 -1078 -537 -2368 -292 -1290 -533 -2351
-536 -2359 -2 -8 -6 -12 -8 -10 -4 4 -1156 4741 -1156 4753 0 3 -600 6 -1334
6 -1262 0 -1335 -1 -1340 -17z"/>
<path d="M28710 9231 c0 -4 -270 -1308 -601 -2897 -610 -2936 -769 -3708 -769
-3731 0 -19 1866 -19 1872 -1 3 7 117 527 254 1156 l249 1143 815 -1 c814 -1
921 2 1170 36 520 71 1008 243 1431 506 459 286 748 650 917 1154 165 495 199
1203 77 1594 -97 307 -268 512 -555 663 -393 208 -838 328 -1320 357 -96 6
-242 15 -325 20 -186 13 -3215 13 -3215 1z m2865 -1386 c268 -41 441 -149 534
-335 52 -104 65 -169 58 -300 -10 -220 -121 -449 -315 -652 -146 -153 -329
-266 -517 -320 -79 -22 -89 -22 -702 -26 -521 -2 -623 -1 -623 11 0 13 346
1594 357 1631 5 18 21 19 562 12 382 -5 584 -12 646 -21z"/>
<path d="M6603 8258 c-226 -15 -484 -112 -669 -251 -80 -61 -217 -201 -277
-285 -183 -254 -271 -585 -238 -893 63 -585 500 -1047 1080 -1144 136 -23 387
-16 506 14 287 71 528 217 703 425 434 516 408 1258 -60 1742 -275 285 -635
419 -1045 392z"/>
<path d="M36685 7415 c-11 -2 -69 -9 -130 -15 -431 -46 -824 -185 -1125 -398
-340 -242 -730 -782 -942 -1305 -185 -457 -281 -975 -279 -1497 3 -555 104
-926 347 -1266 224 -315 523 -452 1062 -486 401 -26 765 33 1034 168 226 112
405 263 681 573 21 23 40 41 42 39 2 -2 -12 -77 -30 -168 -19 -91 -129 -628
-245 -1195 -116 -566 -214 -1040 -217 -1053 l-5 -22 866 0 866 0 5 23 c3 12
313 1456 689 3210 l682 3187 -865 0 -866 0 -49 -192 c-28 -106 -62 -237 -76
-292 l-26 -98 -45 68 c-91 141 -286 342 -453 467 -158 120 -274 180 -428 223
-83 24 -113 27 -283 29 -104 2 -199 2 -210 0z m679 -1105 c198 -50 316 -171
397 -409 58 -167 80 -408 60 -650 -20 -235 -27 -266 -152 -679 -194 -641 -420
-920 -834 -1028 -82 -21 -125 -26 -235 -28 -86 0 -155 4 -190 13 -83 21 -185
78 -232 130 -52 59 -112 185 -146 309 -24 91 -26 110 -26 307 1 206 21 395 54
505 6 19 20 85 31 145 82 448 221 785 451 1092 83 111 176 191 283 243 111 54
177 68 331 69 100 1 149 -4 208 -19z"/>
</g>
</svg>
