<svg xmlns="http://www.w3.org/2000/svg" width="1482.107" height="929.307" viewBox="0 0 1482.107 929.307">
  <defs>
    <style>
      .cls-1 {
        fill: #fff;
      }

      .cls-2 {
        fill: rgba(144,203,240,0.47);
      }

      .cls-3, .cls-5 {
        fill: #90cbf0;
      }

      .cls-3, .cls-4 {
        opacity: 0.5;
      }

      .cls-4 {
        fill: #fbbc56;
      }

      .cls-5 {
        opacity: 0.9;
      }
    </style>
  </defs>
  <g id="HEADER" transform="translate(0 161.12)">
    <rect id="Retângulo_150" data-name="Retângulo 150" class="cls-1" width="1366" height="768"/>
    <path id="Caminho_972" data-name="Caminho 972" class="cls-2" d="M5629.326-43.921s-681.034-39.647-650,383-169,401-169,401h819Z" transform="translate(-4263.326 27.921)"/>
    <g id="Camada_2" data-name="Camada 2" transform="translate(396.471 590.003)">
      <g id="OBJECTS" transform="translate(-0.01 -0.003)">
        <path id="Caminho_1211" data-name="Caminho 1211" class="cls-3" d="M576.8,93.547c-.325.6-.03,1.32,0,2a46.668,46.668,0,0,1-5,16c-.517,1.152-.533,2.932-1,4-5.6-2.331-11.982-3.745-18-3-1.118-5.357-2.4-10.776-4-16-.868-2.787-1.469-5.53,0-8,.684-1.1,1-3.266,0-4-.354-.2-.6-.071-1,0-2.153.184-3.947,1.668-6,1-.918-.3-2.049-1.15-3-1-.62.171-.686.439-1,1s-1.18,1.382-1,2a7.4,7.4,0,0,0,2,3,52.014,52.014,0,0,1,9,17c.648,2.036.6,3.9,1,6h0c-8.345,2.153-16.908,7.989-23,16-7.16-4.506-13.943-9.274-19-16-1.419-1.886-2.581-4.114-4-6a2.745,2.745,0,0,0-3-1,1.609,1.609,0,0,0-1,1c-.905,1.837-2.219,3.988-4,5-.466.211-.651.627-1,1-.295.558-1.195.4-1,1a5.531,5.531,0,0,0,2,2,7.936,7.936,0,0,0,3,1c2.313.581,4.953.777,7,2,2.286,1.285,4.031,2.782,6,4a103.491,103.491,0,0,1,13,10c-3.344,4.963-5.583,10.03-6,16a22.954,22.954,0,0,0,0,4c-3.688.317-7.965,1.883-9,2a160.653,160.653,0,0,1-19,1c-.906-.073-1.147-.315-2,0-.872.356-2.173,1.074-2,2,.334,1.1,2.2,1.132,3,2a6.144,6.144,0,0,1,1,3c.2,1.051.932,2.933,2,3s1.266-1.082,2-2a13.876,13.876,0,0,1,7-4,123.982,123.982,0,0,1,18-3,36.7,36.7,0,0,0,10,16,46.81,46.81,0,0,1-6,5,73.583,73.583,0,0,1-15,9,7.593,7.593,0,0,0-3,2c-.348.424-.056,1.454,0,2s-.428.657,0,1c.51.2,1.457-.083,2,0,1.385.417,2.049,1.9,3,3,.261.323.607.865,1,1a1.829,1.829,0,0,0,2-1,19.486,19.486,0,0,0,0-3c.567-2.77,2.78-4.248,5-6,4.272-3.338,8.928-7.378,13-11,5.3,5,11.9,9.362,19,11-.985,3.054-2.065,6.4-3,9a74.017,74.017,0,0,1-6,13,5.971,5.971,0,0,0-1,3c0,1.035.982,2.217,2,2a7.247,7.247,0,0,0,2-1c1.268-.684,2.6-.367,4,0a2.031,2.031,0,0,0,1,0c.968-.317,1.133-2.015,1-3-.985-7.911.6-15.406,3-23a38.407,38.407,0,0,0,19-4c.612.738.5,2.182,1,3,3.237,5.407,6.3,10.658,7,17a6.92,6.92,0,0,0,1,3,1.19,1.19,0,0,0,2,0c.534-.734.616-1.433,1-2,.7-1.068,2.733-.748,3-2,.167-.8-1.282-1.583-2-2-3.434-2.368-5.8-5.005-7-9-1.152-3.1-1.882-6.9-3-10a30.761,30.761,0,0,0,12-14,42.451,42.451,0,0,0,1-5c1.135.184,2.932.716,4,1a68.92,68.92,0,0,1,18,7,7.763,7.763,0,0,0,3,1c1.083.165,1.642.035,2-1,.3-1.519-1.217-3.465-1-5,.167-1.285,1.6-1.848,1-3-.477-.657-1.271-1.358-2-1a22.36,22.36,0,0,0-2,1c-1.483.54-3.473,1.4-5,1-5.708-.918-11.409-2.615-17-4a58.849,58.849,0,0,0,1-8,49.012,49.012,0,0,0-1-15c.25,0-.25-.933,0-1,5.441-1.669,11.543-2.481,17-4,.7-.236,1.256-.993,2-1a19.7,19.7,0,0,1,3,1c.918.294,1.32.683,2,0,.575-1.106.964-3.209,0-4-.96-.733-2.218-1.08-3-2a20.365,20.365,0,0,1-1-3c-.331-.915-1.033-1.893-2-2a4.355,4.355,0,0,0-3,2c-2.518,3.324-5.056,6.646-9,8-2.337.918-5.58,1.3-8,2a30.521,30.521,0,0,0-14-15l5-10a13.39,13.39,0,0,1,4-6c.918-.584,2.451-.982,2-2-.25-.584-1.316-.783-2-1a5.025,5.025,0,0,1-3-3c-.072-.329.224-.749,0-1A2.241,2.241,0,0,0,576.8,93.547Z" transform="translate(-486.26 -84.547)"/>
      </g>
    </g>
    <g id="Camada_2-2" data-name="Camada 2" transform="translate(1093.72 579.329)">
      <g id="OBJECTS-2" data-name="OBJECTS" transform="translate(-0.01 -0.003)">
        <path id="Caminho_1211-2" data-name="Caminho 1211" class="cls-4" d="M606.55,96.221a7.009,7.009,0,0,0-1,3,59.724,59.724,0,0,1-6,21c-.686,1.528-1.38,3.583-2,5a44.328,44.328,0,0,0-23-3c-1.483-7.107-3.875-14.07-6-21-1.151-3.7-1.948-8.723,0-12,.908-1.461,2.328-3.026,1-4a3.769,3.769,0,0,0-2,0c-2.856.244-5.277.886-8,0-1.218-.4-2.738-1.2-4-1a4.2,4.2,0,0,0-2,2c-.416.745-.238,1.181,0,2a14.531,14.531,0,0,0,3,5,59.634,59.634,0,0,1,11,21,82.563,82.563,0,0,1,2,9h0c-11.069,2.856-22.919,10.373-31,21-9.5-5.977-18.292-12.078-25-21-1.882-2.5-4.118-5.5-6-8-.863-1.129-1.716-2.6-3-2a4.712,4.712,0,0,0-2,2c-1.2,2.437-2.638,4.658-5,6a6.417,6.417,0,0,0-2,1,4.738,4.738,0,0,0,0,3c.259.8.249.63,1,1,1.526.69,3.331,1.855,5,2,3.068.771,6.284,1.378,9,3,3.033,1.7,6.388,4.384,9,6a116.029,116.029,0,0,1,16,12,45.271,45.271,0,0,0-8,22c-.059,1.769.75,3.248,1,5-4.893.421-10.627,1.845-12,2a209.427,209.427,0,0,1-25,1,11.069,11.069,0,0,0-4,1c-1.157.473-1.229,1.771-1,3,.443,1.461,1.937,1.849,3,3a7.888,7.888,0,0,1,1,4,3.777,3.777,0,0,0,3,3c1.417.089,2.026-1.782,3-3a17.082,17.082,0,0,1,9-5,152.96,152.96,0,0,1,23-4c2.486,8.384,7.773,15.861,14,22-2.238,2.381-5.377,4.05-8,6a98.606,98.606,0,0,1-20,12,11.018,11.018,0,0,0-4,3c-.462.562-.075,1.276,0,2s.433.544,1,1c.677.272,1.279.889,2,1,1.838.553,2.738,2.539,4,4,.346.429.478.822,1,1a3.452,3.452,0,0,0,3-2c.3-1.011-.1-1.95,0-3,.753-3.675,4.056-5.675,7-8,5.668-4.428,11.6-9.2,17-14a53.329,53.329,0,0,0,25,13c-1.306,4.051-1.76,8.546-3,12a110.2,110.2,0,0,1-9,18c-.83,1.1-.875,2.627-1,4,0,1.373.65,2.288,2,2a11.127,11.127,0,0,0,3-1c1.683-.908,3.14-.487,5,0a1.548,1.548,0,0,0,1,0,2.858,2.858,0,0,0,2-3c-1.306-10.494,1.812-20.927,5-31a46.233,46.233,0,0,0,24-5,23.834,23.834,0,0,1,2,3c4.295,7.173,8.07,14.587,9,23a8.864,8.864,0,0,0,1,4,1.919,1.919,0,0,0,3,0c.708-.974.491-2.247,1-3,.93-1.417,3.646-.34,4-2,.221-1.063-1.048-2.447-2-3a25.158,25.158,0,0,1-10-13c-1.528-4.118-2.517-7.882-4-12a42.047,42.047,0,0,0,16-19,48.969,48.969,0,0,0,2-6,37.717,37.717,0,0,1,4,1,91.515,91.515,0,0,1,24,9,11.663,11.663,0,0,0,4,2,2.68,2.68,0,0,0,3-2c.4-2.015-2.288-3.963-2-6,.221-1.7,2.8-3.472,2-5a2.669,2.669,0,0,0-3-1c-.974.376-1.07,1.535-2,2a13.356,13.356,0,0,1-7,0c-7.571-1.218-14.583-2.162-22-4a98.924,98.924,0,0,0,1-12,59.687,59.687,0,0,0-2-19c.332,0,.668-.911,1-1,7.217-2.214,14.76-3.985,22-6a9.9,9.9,0,0,1,3,0,25.167,25.167,0,0,1,4,1,2.757,2.757,0,0,0,3-1,4.55,4.55,0,0,0-1-5,17.526,17.526,0,0,1-3-3,30.833,30.833,0,0,1-2-4c-.439-1.213-.717-1.858-2-2-1.505,0-3.159,1.782-4,3-3.34,4.41-7.768,8.2-13,10-3.1,1.218-5.79,2.07-9,3a41.554,41.554,0,0,0-19-20l6-13a19.368,19.368,0,0,1,6-8c1.218-.775,2.6-1.65,2-3-.332-.775-1.092-.712-2-1-1.9-.741-3.289-3.093-4-5-.095-.436-.7-.667-1-1A1.756,1.756,0,0,0,606.55,96.221Z" transform="translate(-486.26 -84.547)"/>
      </g>
    </g>
    <g id="OBJECTS-3" data-name="OBJECTS" transform="translate(47.805 178.611)">
      <path id="Caminho_1211-3" data-name="Caminho 1211" class="cls-4" d="M617.455,97.936c-.471.866-.044,2.015,0,3a66.228,66.228,0,0,1-7,23c-.75,1.669-1.323,3.452-2,5a52.121,52.121,0,0,0-26-4c-1.621-7.765-3.678-15.428-6-23-1.258-4.04-2.129-8.42,0-12,.992-1.6,2.451-3.936,1-5a3.461,3.461,0,0,0-2,0c-3.121.266-6.025,1.968-9,1-1.33-.435-2.621-1.218-4-1-.9.248-1.545.186-2,1a4.329,4.329,0,0,0,0,3c.608,1.743.668,3.722,2,5,5.539,7.074,10.552,14.355,13,23a75.57,75.57,0,0,1,2,9h-1c-12.1,3.121-24.17,12.388-33,24-10.378-6.532-20.67-13.251-28-23-2.056-2.734-3.944-6.266-6-9-.943-1.234-2.6-2.653-4-2-.847.363-.589,1.178-1,2-1.312,2.663-3.419,5.533-6,7a5.882,5.882,0,0,0-2,1,4.358,4.358,0,0,0,0,3,3.885,3.885,0,0,0,2,2,14.2,14.2,0,0,0,5,1,32.317,32.317,0,0,1,9,4c3.314,1.863,7.145,4.234,10,6a130.881,130.881,0,0,1,18,13c-4.847,7.195-8.4,15.346-9,24-.064,1.933.727,4.086,1,6-5.346.46-11.5,1.831-13,2a240.34,240.34,0,0,1-28,1c-1.314-.106-1.764.544-3,1a2.841,2.841,0,0,0-2,3c.484,1.6,1.839,1.742,3,3a12.271,12.271,0,0,1,2,5,3.515,3.515,0,0,0,3,3c1.548.1,1.936-1.67,3-3a18.442,18.442,0,0,1,10-5,180.008,180.008,0,0,1,26-5,54.866,54.866,0,0,0,14,24,59.811,59.811,0,0,1-8,7,108.315,108.315,0,0,1-22,13,10.108,10.108,0,0,0-4,3c-.5.614-1.082,1.209-1,2a2.837,2.837,0,0,0,1,2c.74.3,1.212.879,2,1,2.008.6,3.621,2.4,5,4,.378.469.43.805,1,1a3.2,3.2,0,0,0,3-2,14.819,14.819,0,0,0,1-3c.822-4.016,3.783-7.46,7-10,6.193-4.838,12.1-9.751,18-15a61.95,61.95,0,0,0,28,15c-1.427,4.427-2.645,9.226-4,13a110.085,110.085,0,0,1-9,19c-.906,1.2-.863,3.5-1,5,0,1.5.524,2.315,2,2a10.193,10.193,0,0,0,3-1c1.839-.992,3.968-.532,6,0a1.424,1.424,0,0,0,1,0c1.4-.46,1.193-2.573,1-4-1.427-11.467,2.516-21.993,6-33a50.14,50.14,0,0,0,26-6c.886,1.07,2.276,1.815,3,3a65.144,65.144,0,0,1,9,26,8.132,8.132,0,0,0,1,4c.822,1.04,3.226,1.064,4,0s.444-2.178,1-3c1.016-1.548,3.613-1.186,4-3,.242-1.161-.96-1.4-2-2a25.386,25.386,0,0,1-10-14c-1.669-4.5-3.379-9.5-5-14,7.76-5.118,14.458-12.4,18-21a44.829,44.829,0,0,0,2-6c1.645.266,3.452.589,5,1a92.462,92.462,0,0,1,25,10c1.254.888,3.494.691,5,1,1.569.239,2.481-.5,3-2,.435-2.2-2.315-3.774-2-6,.242-1.863,2.871-3.331,2-5a2.488,2.488,0,0,0-3-1c-1.064.411-1.984,1.492-3,2a12.265,12.265,0,0,1-7,0c-8.273-1.331-15.9-2.992-24-5a90.558,90.558,0,0,0,1-12,72.979,72.979,0,0,0-2-22,3.462,3.462,0,0,0,1,0c7.886-2.419,16.089-4.8,24-7,1.022-.343,1.922.01,3,0a23.04,23.04,0,0,1,4,1,4.163,4.163,0,0,0,4-1,4.233,4.233,0,0,0-1-5,28.481,28.481,0,0,1-4-4,24.037,24.037,0,0,1-1-4c-.48-1.326-2.6-1.845-4-2-1.645,0-2.081,1.67-3,3-3.65,4.818-9.283,8.038-15,10-3.387,1.331-6.492,2.984-10,4a46.2,46.2,0,0,0-21-22l7-14c1.211-3.291,3.242-6.835,6-9,1.33-.847,3.653-1.524,3-3-.363-.847-2.008-1.686-3-2a6.215,6.215,0,0,1-4-4c-.1-.477-.676-.636-1-1A1.635,1.635,0,0,0,617.455,97.936Z" transform="translate(-486.26 -84.547)"/>
    </g>
    <g id="Camada_2-3" data-name="Camada 2" transform="translate(1135.98 -161.304)">
      <g id="OBJECTS-4" data-name="OBJECTS" transform="translate(0.02 0.049)">
        <path id="Caminho_1212" data-name="Caminho 1212" class="cls-5" d="M1000,228.194a9.167,9.167,0,0,0-5,1c-14.842,5.566-31.286,6.944-47,7H938a97.7,97.7,0,0,0-14-48c12.245-9,23.627-17.926,35-28,6.03-5.362,13-11.039,21-10,3.711.482,9.406,1.6,10-2a7.7,7.7,0,0,0-1-4c-2.95-5.176-8.351-9.045-9-15-.3-2.653.466-5.737-1-8-1.855-2.95-7.31-2.171-10,0s-3.5,4.809-5,8c-7.421,15.621-19.384,28.46-32,40-4.386,3.993-9.155,8.579-14,12-.13-.186.148-.814,0-1-15.065-18.664-41.783-32.859-69-39,3.135-23.228,8.813-46.425,20-67,3.135-5.751,6.865-11.267,10-17,1.429-2.616,2.263-7.052,0-9a7.642,7.642,0,0,0-5-1,28.785,28.785,0,0,1-16-5,12.112,12.112,0,0,0-4-2c-3.414-.8-5.629,2.512-6,6a28.11,28.11,0,0,0,1,10,67.837,67.837,0,0,1,1,20c-.612,7.273-1.221,14.618-2,21a255.357,255.357,0,0,1-9,42c-17.087-2.375-34.492-1.9-49,4a66.281,66.281,0,0,0-10,5c-5.083-8.924-12.553-18.514-14-21a427.135,427.135,0,0,1-23-46,14.781,14.781,0,0,0-4-6c-1.911-1.77-4.855-2.477-7-1-2.356,2.1-1.683,6.124-3,9s-4.588,4.275-7,6-4.058,4.217-3,7c1.169,3.043,4.827,4.2,8,5,6.92,1.725,12.38,6.583,17,12,10.558,12.791,19.463,26.779,28,41-13.321,11-23.247,27.431-30,45a121.674,121.674,0,0,1-19-9,211.742,211.742,0,0,1-40-29c-2.068-2.274-5.063-3.092-8-4-2.987-.631-6.7.957-7,4a16.406,16.406,0,0,0,1,4c.557,3.989-2.367,7.4-4,11a8.373,8.373,0,0,0-1,4c.725,2.152,3.741,3.231,6,3,2.186-.287,3.918-1.275,6-2,7.644-1.855,15.1,2.4,22,6,13.358,6.9,27.178,12.97,41,19-6.456,20.408-8.36,42.616-4,60-8.887,1.039-18.542,3.425-26,4-13.475,1.04-26.575,1.558-40,0-2.815-.609-6.285-.96-9,0a4.828,4.828,0,0,0-2,7c1.113,1.5,2.5,1.794,4,3,3.191,2.393,3.184,7.085,4,11a7.057,7.057,0,0,0,1,3c1.855,2.078,5.588.466,8-1,18.831-11.558,40.959-15.273,63-18a100.432,100.432,0,0,0,31,42,61.979,61.979,0,0,1-4,7c-9.944,14.36-21.768,27.946-37,37-2.291,1.053-3.576,2.92-5,5-1.169,2.226-.449,5.481,2,6,1.855.39,3.145-1.3,5-1,3.469.557,5.568,6.853,9,6,2.263-.519,2.74-3.7,3-6,1.262-11.373,7.855-20.948,16-29,6.531-6.456,14.4-12.6,21-19,15.057,9.483,32.218,14.659,50,14a102.835,102.835,0,0,0,13-2c.835,3.061.443,7.032,1,10,3.024,17.4,6.022,34.431,4,52a21.305,21.305,0,0,0,0,9c.928,2.783,3.087,5.649,6,5,4.174-.965,5.937-7.776,10-9,3.469-1.039,7.774,1.894,10-1,1.336-1.707.558-4.479-1-6s-3.386-1.664-5-3c-3.358-2.764-4.85-7.807-6-12-4.23-15.454-8.069-31.267-11-47a173.06,173.06,0,0,0,22-7,139.378,139.378,0,0,0,37-21c.538.538,1.536,1.443,2,2,10.371,11.855,19.889,23.867,30,36a17.647,17.647,0,0,1,3,5,55.849,55.849,0,0,1,2,8c.538,2.56,1.458,5.388,4,6,3.265.779,6.831-2.865,8-6s1.145-6.2,3-9a53.864,53.864,0,0,1,6-6c1.855-1.985,3.169-4.514,2-7-1.336-2.82-4.939-3.462-8-4-11.317-1.948-21.744-9.022-30-17-5.028-4.842-9.38-10.75-14-16,12.987-14.471,20-33.39,21-53l31,1c6.679.093,13.379.382,19,4,2.56,1.651,5.959,4.263,8,2,1.206-1.336,1.111-4.2,1-6a13.744,13.744,0,0,1,4-11,6.173,6.173,0,0,0,2-2C1003.557,230.673,1001.856,228.51,1000,228.194Z" transform="translate(-657 -39.939)"/>
      </g>
    </g>
  </g>
</svg>
